<?xml version="1.0" encoding="UTF-8"?>
<svg width="128px" height="197px" viewBox="0 0 128 197" version="1.1" xmlns="http://www.w3.org/2000/svg" xmlns:xlink="http://www.w3.org/1999/xlink">
    <!-- Generator: sketchtool 52.5 (67469) - http://www.bohemiancoding.com/sketch -->
    <title>F6DF8E0B-5995-4CC2-B115-B47FEE96CEBA</title>
    <desc>Created with sketchtool.</desc>
    <g id="Page-1" stroke="none" stroke-width="1" fill="none" fill-rule="evenodd">
        <g id="1" transform="translate(-123.000000, 0.000000)">
            <g id="Group-6">
                <g id="lamp-icon" transform="translate(123.000000, 0.000000)">
                    <path d="M56,75.1770112 L56,83 C60.9597169,82.1390858 66.0415038,82.1390858 71,83 L71,75.1770112 C71,71.2135349 67.6430663,68 63.5,68 C59.3581544,68 56,71.2135349 56,75.1770112 Z" id="Path" fill="#EEF1F9"></path>
                    <path d="M18.4448099,125.474673 C17.5150974,126.40118 16.9940756,127.673143 17.0000508,129.000037 C17.0084159,131.757585 19.1952721,133.991455 21.894785,134 L105.105266,134 C107.808364,134 110,131.761247 110,129.000037 C110,126.238827 107.808364,124.000075 105.105266,124.000075 L21.894785,124.000075 C20.5970111,123.99275 19.3506227,124.524973 18.4448099,125.474673 Z" id="Path" fill="#EEF1F9"></path>
                    <path d="M56.1764708,83.6509338 C36.3931689,87.1426009 21.9916597,104.145193 22,124 L105,124 C105.009531,104.145193 90.6068297,87.1426009 70.8235281,83.6509338 C65.9817029,82.7830221 61.0194879,82.7830221 56.1764708,83.6509338 Z" id="Path" fill="#EEF1F9"></path>
                    <g id="Group">
                        <path d="M63.9700958,197 C62.6172249,197 61.520335,195.910466 61.520335,194.566667 L61.520335,165.366667 C61.520335,164.022868 62.6172249,162.933333 63.9700958,162.933333 C65.3229664,162.933333 66.4198565,164.022868 66.4198565,165.366667 L66.4198565,194.566667 C66.4198565,195.910466 65.3229664,197 63.9700958,197 Z" id="Path" fill="#1E81CE"></path>
                        <path d="M2.44976077,161.716667 C1.34090901,161.716667 0.37081355,160.976448 0.0837322105,159.913053 C-0.203349129,158.849658 0.26435399,157.726855 1.22488038,157.175553 L26.6806219,142.575553 C27.4389953,142.134749 28.3767943,142.129997 29.138756,142.56486 C29.901914,142.999723 30.3708136,143.807666 30.3684211,144.680957 C30.367225,145.554248 29.8947368,146.358626 29.1303827,146.791113 L3.67464115,161.391113 C3.3026315,161.60498 2.88038278,161.717855 2.44976077,161.716667 Z" id="Path" fill="#E1E4EF"></path>
                        <path d="M28.4485647,187.543506 C27.5741627,187.543506 26.7667463,187.078939 26.3289474,186.326839 C25.8923447,185.573552 25.8923447,184.646794 26.3301435,183.893506 L41.0287081,158.609652 C41.4629187,157.850423 42.2739234,157.381104 43.15311,157.378727 C44.0322967,157.376351 44.8444975,157.843294 45.2822967,158.600146 C45.7200958,159.356999 45.7165073,160.289697 45.2715312,161.042985 L30.5729666,186.326839 C30.1351674,187.081315 29.3253589,187.544694 28.4485647,187.543506 Z" id="Path" fill="#E1E4EF"></path>
                        <path d="M63.9700958,197 C62.6172249,197 61.520335,195.910466 61.520335,194.566667 L61.520335,165.366667 C61.520335,164.022868 62.6172249,162.933333 63.9700958,162.933333 C65.3229664,162.933333 66.4198565,164.022868 66.4198565,165.366667 L66.4198565,194.566667 C66.4198565,195.910466 65.3229664,197 63.9700958,197 Z" id="Path" fill="#E1E4EF"></path>
                        <path d="M99.4916269,187.543506 C98.6160288,187.544694 97.8062202,187.081315 97.3684211,186.326839 L82.6698565,161.042985 C82.2248804,160.289697 82.2212918,159.356999 82.659091,158.600146 C83.0968899,157.843294 83.9090909,157.376351 84.7882776,157.378727 C85.667464,157.381104 86.4784689,157.850423 86.9126795,158.609652 L101.611244,183.893506 C102.049043,184.646794 102.049043,185.573552 101.611244,186.326839 C101.174641,187.078939 100.367225,187.543506 99.4916269,187.543506 Z" id="Path" fill="#E1E4EF"></path>
                        <path d="M125.491627,161.716667 C125.061005,161.717855 124.638756,161.60498 124.266746,161.391113 L98.8110049,146.791113 C98.0466508,146.358626 97.5741627,145.554248 97.5717702,144.680957 C97.5705741,143.807666 98.0394736,142.999723 98.8014356,142.56486 C99.5633972,142.129997 100.502392,142.134749 101.260766,142.575553 L126.716507,157.175553 C127.675837,157.726855 128.144737,158.849658 127.857655,159.913053 C127.570574,160.976448 126.600479,161.716667 125.491627,161.716667 Z" id="Path" fill="#E1E4EF"></path>
                        <path d="M73.7691388,81.3418131 L73.7691388,75.3333333 C73.7822965,70.8979656 70.7511962,67.0257813 66.4198565,65.945752 L66.4198565,1.11022302e-16 L61.520335,1.11022302e-16 L61.520335,65.945752 C57.2069377,67.0519207 54.187799,70.9086589 54.1710527,75.3333333 L54.1710527,81.3441895 C34.84689,85.6738119 20.833732,102.320996 19.9653111,121.980143 C18.9078948,122.317578 17.9473684,122.902148 17.1626794,123.683952 C15.7511962,125.042008 14.9617225,126.914534 14.9748805,128.866667 C14.9748805,132.898063 18.2655504,136.166667 22.3241628,136.166667 L34.6028708,136.166667 C39.5334927,147.953125 51.1208133,155.633333 63.9700958,155.633333 C76.8205743,155.633333 88.4066986,147.953125 93.3385168,136.166667 L105.616029,136.166667 C109.20933,136.174984 112.278708,133.59432 112.863636,130.073828 C113.449761,126.552148 111.380383,123.127897 107.976077,121.987272 C107.111244,102.32456 93.0980863,85.6726239 73.7691388,81.3418131 Z M59.0705742,75.3333333 C59.0705742,72.6457355 61.264354,70.4666667 63.9700958,70.4666667 C66.6758372,70.4666667 68.8696173,72.6457355 68.8696173,75.3333333 L68.8696173,80.4697104 C68.722488,80.4554526 68.5681819,80.4697104 68.4222487,80.4459473 C67.1148325,80.3140625 65.7918659,80.2415854 64.4509569,80.2273276 C64.2894735,80.2273276 64.1327752,80.2 63.9605264,80.2 C63.7894737,80.2 63.6662679,80.2213866 63.5167464,80.223763 C62.1674641,80.2368328 60.8229665,80.3140625 59.5023923,80.4459473 C59.3576556,80.4602052 59.2057416,80.4459473 59.0610049,80.4697104 L59.0705742,75.3333333 Z M57.0693781,85.6821291 C61.632775,84.8646811 66.3074162,84.8646811 70.8720095,85.6821291 L70.923445,85.6821291 C88.7057418,88.822412 102.005981,103.657666 103.093301,121.566667 L24.848086,121.566667 C25.9425837,103.643408 39.2667465,88.8034016 57.0693781,85.6821291 Z M63.9700958,150.766667 C53.8421053,150.764291 44.569378,145.125326 39.9629186,136.166667 L87.9784691,136.166667 C83.3708132,145.125326 74.098086,150.764291 63.9700958,150.766667 Z M105.616029,131.3 L22.3241628,131.3 C20.9712919,131.3 19.874402,130.210466 19.874402,128.866667 C19.8732059,128.209619 20.1459329,127.582275 20.6267943,127.131966 C21.0741625,126.679281 21.6866027,126.427393 22.3241628,126.433333 L105.616029,126.433333 C106.968899,126.433333 108.06579,127.522868 108.06579,128.866667 C108.06579,130.210466 106.968899,131.3 105.616029,131.3 Z" id="Shape" fill="#E1E4EF" fill-rule="nonzero"></path>
                    </g>
                </g>
            </g>
        </g>
    </g>
</svg>