<?xml version="1.0" encoding="UTF-8"?>
<svg width="24px" height="36px" viewBox="0 0 24 36" version="1.1" xmlns="http://www.w3.org/2000/svg" xmlns:xlink="http://www.w3.org/1999/xlink">
    <!-- Generator: sketchtool 52.5 (67469) - http://www.bohemiancoding.com/sketch -->
    <title>A5D46D98-14BB-435D-81D2-4E161930417A</title>
    <desc>Created with sketchtool.</desc>
    <g id="Page-1" stroke="none" stroke-width="1" fill="none" fill-rule="evenodd">
        <g id="3" transform="translate(-28.000000, -565.000000)" fill="#B5BCCF" fill-rule="nonzero">
            <g id="Group-3">
                <g id="off-icon" transform="translate(40.000000, 583.000000) rotate(-180.000000) translate(-40.000000, -583.000000) translate(22.000000, 565.000000)">
                    <path d="M4.75405882,17.6514588 L2.79739378,18.7811279 C2.29312132,19.0722656 2.12008669,19.7174377 2.41149902,20.2217102 C2.60678102,20.5600891 2.96136478,20.7493286 3.32583616,20.7493286 C3.50491331,20.7493286 3.68618773,20.7037354 3.85208128,20.6078797 L5.80874632,19.4782105 C6.31329342,19.1870727 6.48605348,18.5419006 6.19491579,18.0373535 C5.90377809,17.5330811 5.25860592,17.3600464 4.75405882,17.6514588 Z" id="Path" opacity="0"></path>
                    <path d="M30.7194214,4.93395996 C30.8982239,4.93395996 31.0794983,4.88836673 31.2456665,4.79223633 L33.2023316,3.66256716 C33.7068787,3.37142946 33.8796387,2.72625736 33.588501,2.22198483 C33.2973633,1.71743773 32.6521912,1.54440309 32.1476441,1.83581543 L30.190979,2.9654846 C29.6864319,3.25689694 29.5136719,3.90179447 29.8048096,4.40634157 C30.0003662,4.74472048 30.35495,4.93395996 30.7194214,4.93395996 Z" id="Path" opacity="0"></path>
                    <path d="M33.2026062,18.7811279 L31.2456665,17.6514588 C30.7411194,17.3600464 30.0962219,17.5330811 29.8050842,18.0376282 C29.5136719,18.5421753 29.6867066,19.1870727 30.1912537,19.4782105 L32.1479187,20.6078797 C32.3138123,20.7037354 32.4950867,20.7493286 32.6741638,20.7493286 C33.0386352,20.7493286 33.393219,20.5600891 33.588501,20.2217102 C33.8799133,19.7174377 33.7068787,19.0722656 33.2026062,18.7811279 Z" id="Path" opacity="0"></path>
                    <path d="M5.80902103,2.9654846 L3.85235592,1.83609007 C3.34780882,1.54495238 2.70263672,1.71771244 2.41177366,2.22225954 C2.12036133,2.726532 2.29312132,3.3717041 2.79766842,3.6628418 L4.75433353,4.79223633 C4.92050173,4.88809202 5.10177614,4.93395996 5.28057858,4.93395996 C5.64505003,4.93395996 5.99963379,4.74472048 6.19491579,4.40606686 C6.48632812,3.90179447 6.31329342,3.25689694 5.80902103,2.9654846 Z" id="Path" opacity="0"></path>
                    <path d="M10.3944397,26.9626465 C10.2480469,27.3361816 10.1670227,27.7424011 10.1670227,28.1672973 C10.1670227,28.5919189 10.2477722,28.9984131 10.394165,29.3719482 L25.605835,29.3719482 C25.7522278,28.9984131 25.8327027,28.5919189 25.8327027,28.1672973 C25.8327027,27.7424011 25.7519531,27.3361816 25.605835,26.9626465 L10.3944397,26.9626465 Z" id="Path"></path>
                    <path d="M18,0 C11.8122254,0 6.77801517,5.03421019 6.77801517,11.2219848 C6.77801517,14.7829285 8.45700075,18.1062927 11.2966919,20.2222595 L11.2966919,20.3343201 L14.6859742,20.3343201 L14.6859742,16.1776428 L13.1715088,14.6631775 C12.7597961,14.2514648 12.7597961,13.5834961 13.1715088,13.1715088 C13.5834961,12.7597961 14.2511902,12.7597961 14.6631775,13.1715088 L16.4863586,14.9949646 C16.6843872,15.1927185 16.7953492,15.4610596 16.7953492,15.7406617 L16.7953492,20.3343201 L19.2046508,20.3343201 L19.2046508,15.7406617 C19.2046508,15.4607849 19.3158875,15.1927185 19.5136414,14.9949646 L21.3370972,13.1715088 C21.7488098,12.7597961 22.4167785,12.7597961 22.8287659,13.1715088 C23.2404785,13.5834961 23.2404785,14.2511902 22.8287659,14.6631775 L21.3143006,16.1773682 L21.3143006,20.3343201 L24.7033081,20.3343201 L24.7033081,20.2222595 C27.5429992,18.1062927 29.2219848,14.7829285 29.2219848,11.2219848 C29.2219848,5.03421019 24.1877746,0 18,0 Z" id="Path"></path>
                    <path d="M10.3947144,22.4436951 C10.2483215,22.8172302 10.1672973,23.2234497 10.1672973,23.6483459 C10.1672973,24.0732422 10.2480469,24.4794617 10.3944397,24.8532715 L25.6055603,24.8532715 C25.7519531,24.4794617 25.8327027,24.0732422 25.8327027,23.6483459 C25.8327027,23.2234497 25.7519531,22.8172302 25.6052856,22.4436951 L10.3947144,22.4436951 Z" id="Path"></path>
                    <path d="M18,36 C20.7125244,36 22.9762574,34.0513 23.4709168,31.4813232 L12.5293579,31.4813232 C13.0240174,34.0515747 15.2877502,36 18,36 Z" id="Path"></path>
                </g>
            </g>
        </g>
    </g>
</svg>