<?xml version="1.0" encoding="UTF-8"?>
<svg width="36px" height="36px" viewBox="0 0 36 36" version="1.1" xmlns="http://www.w3.org/2000/svg" xmlns:xlink="http://www.w3.org/1999/xlink">
    <!-- Generator: sketchtool 52.5 (67469) - http://www.bohemiancoding.com/sketch -->
    <title>AE2136A0-2D78-4F20-BEA6-8AE93338107A</title>
    <desc>Created with sketchtool.</desc>
    <g id="Page-1" stroke="none" stroke-width="1" fill="none" fill-rule="evenodd">
        <g id="3" transform="translate(-317.000000, -565.000000)">
            <g id="Group-3">
                <g id="on-icon" transform="translate(335.000000, 583.000000) rotate(-180.000000) translate(-335.000000, -583.000000) translate(317.000000, 565.000000)">
                    <path d="M22.5866013,29.3142857 L13.4133987,29.3142857 C12.8220918,29.3142857 12.3428571,29.7905307 12.3428571,30.3781488 C12.3428571,33.4780351 14.8806539,36 18,36 C21.1196249,36 23.6571429,33.4780351 23.6571429,30.3781488 C23.6571429,29.7905307 23.1779082,29.3142857 22.5866013,29.3142857 Z" id="Path" fill="#DAE0EF"></path>
                    <path d="M22.5866013,29.3142857 L18,29.3142857 L18,36 C21.1196249,36 23.6571429,33.4780351 23.6571429,30.3781488 C23.6571429,29.7905307 23.1779082,29.3142857 22.5866013,29.3142857 Z" id="Path" fill="#98A3C1"></path>
                    <path d="M18,2.27373675e-13 C11.7613309,2.27373675e-13 6.68571429,5.00807898 6.68571429,11.1637346 C6.68571429,14.7061943 8.37850953,18.0123079 11.2418341,20.1172913 L11.2418341,21.5793585 C11.2418341,22.1586115 11.7178548,22.6285714 12.3051964,22.6285714 C12.892261,22.6285714 13.3685587,22.1586115 13.3685587,21.5793585 L22.6317183,21.5793585 C22.6317183,22.1588848 23.107739,22.6285714 23.6950806,22.6285714 C24.2821452,22.6285714 24.7584429,22.1588848 24.7584429,21.5793585 L24.7584429,20.1172913 C27.6214905,18.0123079 29.3142857,14.7061943 29.3142857,11.1637346 C29.3140088,5.00807898 24.2386691,2.27373675e-13 18,2.27373675e-13 Z" id="Path" fill="#FFE37C"></path>
                    <path d="M18,2.27373675e-13 L18,21.5793585 L22.6317183,21.5793585 C22.6317183,22.1588848 23.107739,22.6285714 23.6950806,22.6285714 C24.2821452,22.6285714 24.7584429,22.1588848 24.7584429,21.5793585 L24.7584429,20.1172913 C27.6214905,18.0123079 29.3142857,14.7061943 29.3142857,11.1637346 C29.3140088,5.00807898 24.2386691,2.27373675e-13 18,2.27373675e-13 Z" id="Path" fill="#FFD12B"></path>
                    <path d="M3.12102171,12.3428571 L0.993264005,12.3428571 C0.444640856,12.3428571 -6.82121026e-13,11.8821429 -6.82121026e-13,11.3142857 C-6.82121026e-13,10.7461607 0.444640856,10.2857143 0.993264005,10.2857143 L3.12102171,10.2857143 C3.66938621,10.2857143 4.11428571,10.7461607 4.11428571,11.3142857 C4.11428571,11.8821429 3.66938621,12.3428571 3.12102171,12.3428571 Z" id="Path" fill="#FFE37C"></path>
                    <path d="M35.006736,12.3428571 L32.8789783,12.3428571 C32.3303551,12.3428571 31.8857143,11.8821429 31.8857143,11.3142857 C31.8857143,10.7461607 32.3303551,10.2857143 32.8789783,10.2857143 L35.006736,10.2857143 C35.5551005,10.2857143 36,10.7461607 36,11.3142857 C36,11.8821429 35.5551005,12.3428571 35.006736,12.3428571 Z" id="Path" fill="#FFE37C"></path>
                    <path d="M3.12546862,20.5714286 C2.75670409,20.5714286 2.39794365,20.3914293 2.20036141,20.0691051 C1.90551649,19.5884968 2.08058932,18.9739355 2.59080166,18.6966111 L4.57051447,17.6205401 C5.08100468,17.3429541 5.73377641,17.507779 6.02834344,17.9883873 C6.32291048,18.4689958 6.14811546,19.0832954 5.63762524,19.3606199 L3.65791244,20.4366908 C3.4900648,20.5279986 3.30665514,20.5714286 3.12546862,20.5714286 Z" id="Path" fill="#FFE37C"></path>
                    <path d="M30.8967263,4.62857143 C30.5279747,4.62857143 30.1692269,4.44832588 29.9716515,4.12602901 C29.6770949,3.64546138 29.8518837,3.03095212 30.362356,2.75365125 L32.3419993,1.67767154 C32.8524716,1.40010908 33.5049425,1.56491994 33.799777,2.04548758 C34.0943337,2.52579369 33.9195449,3.14030288 33.4090726,3.41760375 L31.4294293,4.49358346 C31.2613097,4.5851451 31.0779064,4.62857143 30.8967263,4.62857143 Z" id="Path" fill="#FFE37C"></path>
                    <path d="M32.8745951,20.5714286 C32.6934178,20.5714286 32.5100173,20.527995 32.3421782,20.4366798 L30.3622872,19.3607825 C29.8521006,19.0834354 29.6770366,18.4688239 29.9715888,17.9881762 C30.2664188,17.5077901 30.9188797,17.3429518 31.4293442,17.6205605 L33.4089573,18.6964578 C33.9194218,18.9740665 34.0944858,19.5884164 33.7996557,20.0690641 C33.6020834,20.391153 33.2433411,20.5714286 32.8745951,20.5714286 Z" id="Path" fill="#FFE37C"></path>
                    <path d="M5.10310275,4.62857143 C4.92219418,4.62857143 4.73878452,4.58513978 4.57065901,4.49382854 L2.59094613,3.41771707 C2.08045591,3.14038223 1.90566096,2.52605941 2.200228,2.04543292 C2.49479504,1.56480643 3.14756669,1.40023694 3.65805691,1.67757177 L5.63776978,2.75342163 C6.14798205,3.03101809 6.32305495,3.64534098 6.02821004,4.12596746 C5.83062779,4.4483038 5.47186735,4.62857143 5.10310275,4.62857143 Z" id="Path" fill="#FFE37C"></path>
                    <path d="M15.8680216,22.6285714 C15.2585616,22.6285714 14.7646146,22.1470485 14.7646146,21.5529181 L14.7646146,16.2376777 L13.1801911,14.6933868 C12.7494601,14.2732097 12.7494601,13.5922427 13.1801911,13.1720656 C13.6109221,12.7521686 14.3097466,12.7521686 14.7404775,13.1720656 L16.6481648,15.0317695 C16.8550536,15.2334545 16.9714286,15.5071298 16.9714286,15.79229 L16.9714286,21.5529181 C16.9714286,22.1470485 16.4774815,22.6285714 15.8680216,22.6285714 Z" id="Path" fill="#FF9C2B"></path>
                    <path d="M20.1319206,22.6285714 C19.5224926,22.6285714 19.0285714,22.1470485 19.0285714,21.5529181 L19.0285714,15.79229 C19.0285714,15.5068497 19.1449403,15.2334545 19.3518183,15.0317695 L21.2591183,13.1720656 C21.690114,12.7521686 22.3886145,12.7521686 22.8196103,13.1720656 C23.2506061,13.5922427 23.2506061,14.2732097 22.8196103,14.6933868 L21.2352698,16.2376777 L21.2352698,21.5529181 C21.2352698,22.1470485 20.7410613,22.6285714 20.1319206,22.6285714 Z" id="Path" fill="#FF9C2B"></path>
                    <path d="M25.7140152,23.4209021 C25.7140152,21.5661789 24.2497927,20.0571429 22.4501489,20.0571429 L13.5495806,20.0571429 C11.7499368,20.0571429 10.2857143,21.5661789 10.2857143,23.4209021 C10.2857143,24.3065862 10.6200537,25.1128178 11.1648429,25.7144251 C10.6200537,26.3157535 10.2857143,27.1219852 10.2857143,28.0076692 C10.2857143,29.8623925 11.7499368,31.3714286 13.5495806,31.3714286 L22.4504194,31.3714286 C24.2500632,31.3714286 25.7142857,29.8623925 25.7142857,28.0076692 C25.7142857,27.1219852 25.3799464,26.3157535 24.8348866,25.7144251 C25.3796758,25.1128178 25.7140152,24.3065862 25.7140152,23.4209021 Z" id="Path" fill="#EEF1F9"></path>
                    <path d="M25.7142857,23.4209021 C25.7142857,21.5661789 24.2500375,20.0571429 22.4503622,20.0571429 L18,20.0571429 L18,31.3714286 L22.4503622,31.3714286 C24.2500375,31.3714286 25.7142857,29.8623925 25.7142857,28.0073905 C25.7142857,27.1217065 25.3799404,26.3154747 24.8351417,25.7141463 C25.3799404,25.1128178 25.7142857,24.3065862 25.7142857,23.4209021 Z" id="Path" fill="#B5BCCF"></path>
                </g>
            </g>
        </g>
    </g>
</svg>